<svg width="123" height="123" viewBox="0 0 123 123" fill="none" xmlns="http://www.w3.org/2000/svg">
<circle cx="61.5" cy="61.5" r="61.5" fill="#38435F"/>
<path d="M36 54.709H58.6378V77.2472H38C36.8954 77.2472 36 76.3518 36 75.2472V54.709Z" fill="white"/>
<ellipse cx="58.7235" cy="54.6236" rx="22.7235" ry="22.6236" fill="white"/>
<mask id="path-4-outside-1_377:7" maskUnits="userSpaceOnUse" x="58.0603" y="53.0605" width="37" height="36" fill="black">
<rect fill="white" x="58.0603" y="53.0605" width="37" height="36"/>
<path fill-rule="evenodd" clip-rule="evenodd" d="M76.1004 86.9998C67.2417 86.9998 60.0603 79.8499 60.0603 71.0302C60.0603 62.2104 67.2417 55.0605 76.1004 55.0605C84.9591 55.0605 92.1405 62.2104 92.1405 71.0302C92.1405 71.0504 92.1405 71.0707 92.1404 71.0909H92.1405V85.0002C92.1405 86.1048 91.2451 87.0002 90.1405 87.0002H76.161V86.9997C76.1408 86.9997 76.1206 86.9998 76.1004 86.9998Z"/>
</mask>
<path fill-rule="evenodd" clip-rule="evenodd" d="M76.1004 86.9998C67.2417 86.9998 60.0603 79.8499 60.0603 71.0302C60.0603 62.2104 67.2417 55.0605 76.1004 55.0605C84.9591 55.0605 92.1405 62.2104 92.1405 71.0302C92.1405 71.0504 92.1405 71.0707 92.1404 71.0909H92.1405V85.0002C92.1405 86.1048 91.2451 87.0002 90.1405 87.0002H76.161V86.9997C76.1408 86.9997 76.1206 86.9998 76.1004 86.9998Z" fill="#D4AF37"/>
<path d="M92.1404 71.0909L90.1404 71.0833L90.1329 73.0909H92.1404V71.0909ZM92.1405 71.0909H94.1405V69.0909H92.1405V71.0909ZM76.161 87.0002H74.161V89.0002H76.161V87.0002ZM76.161 86.9997H78.161V84.9923L76.1536 84.9997L76.161 86.9997ZM58.0603 71.0302C58.0603 80.9628 66.1455 88.9998 76.1004 88.9998V84.9998C68.338 84.9998 62.0603 78.7371 62.0603 71.0302H58.0603ZM76.1004 53.0605C66.1455 53.0605 58.0603 61.0975 58.0603 71.0302H62.0603C62.0603 63.3233 68.338 57.0605 76.1004 57.0605V53.0605ZM94.1405 71.0302C94.1405 61.0975 86.0554 53.0605 76.1004 53.0605V57.0605C83.8629 57.0605 90.1405 63.3233 90.1405 71.0302H94.1405ZM94.1404 71.0984C94.1405 71.0757 94.1405 71.0529 94.1405 71.0302H90.1405C90.1405 71.0479 90.1405 71.0656 90.1404 71.0833L94.1404 71.0984ZM92.1405 69.0909H92.1404V73.0909H92.1405V69.0909ZM94.1405 85.0002V71.0909H90.1405V85.0002H94.1405ZM90.1405 89.0002C92.3497 89.0002 94.1405 87.2094 94.1405 85.0002H90.1405V89.0002ZM76.161 89.0002H90.1405V85.0002H76.161V89.0002ZM74.161 86.9997V87.0002H78.161V86.9997H74.161ZM76.1004 88.9998C76.123 88.9998 76.1456 88.9997 76.1683 88.9996L76.1536 84.9997C76.1359 84.9997 76.1182 84.9998 76.1004 84.9998V88.9998Z" fill="#38435F" mask="url(#path-4-outside-1_377:7)"/>
</svg>
