<svg width="73" height="73" viewBox="0 0 73 73" fill="none" xmlns="http://www.w3.org/2000/svg">
<mask id="mask0" style="mask-type:alpha" maskUnits="userSpaceOnUse" x="0" y="0" width="73" height="73">
<circle cx="36.5" cy="36.5" r="36.5" fill="#C4C4C4"/>
</mask>
<g mask="url(#mask0)">
<circle cx="36.5" cy="36.5" r="36.5" fill="#1B1B1B"/>
<path d="M46.6793 15.0159L46.706 13.332L45.2148 14.1145C38.8852 17.4357 32.6386 17.4215 26.359 14.1152L25.0427 13.4221L24.8979 14.9027C24.0517 23.5552 20.4424 28.3376 15.4899 31.2751L14.013 32.151L15.5037 33.0033C21.5216 36.444 24.7754 41.7326 24.8933 49.2859L24.9197 50.9801L26.3901 50.1381C31.6867 47.1051 37.7527 46.5243 45.2418 50.1695L46.6561 50.8578L46.6793 49.2851C46.788 41.9331 49.9624 36.5833 56.0783 32.9978L57.5525 32.1336L56.077 31.2717C52.765 29.337 50.4007 27.0036 48.8731 24.315C47.3459 21.627 46.6236 18.5288 46.6793 15.0159Z" stroke="white" stroke-width="2"/>
<path fill-rule="evenodd" clip-rule="evenodd" d="M53.0734 32.6668C43.7755 38.3153 27.7857 38.3793 18.4996 32.6834L17.6838 32.183L18.4972 31.6756C27.7501 25.899 43.8632 25.7639 53.0876 31.6613L53.8891 32.1736L53.0758 32.6668H53.0734Z" fill="white"/>
<path fill-rule="evenodd" clip-rule="evenodd" d="M52.7649 32.161C43.6543 37.698 27.9016 37.7549 18.8076 32.1776C27.8542 26.5315 43.723 26.3797 52.7649 32.161Z" fill="#C4996C"/>
<path fill-rule="evenodd" clip-rule="evenodd" d="M27.6242 16.9181C32.732 19.7163 37.0218 24.7126 39.9219 29.6948C41.4869 32.3839 42.7793 35.2769 43.6686 38.26C44.4938 41.025 45.0012 43.963 44.9254 46.8537L44.8993 47.8117L44.0527 47.3611C38.9069 44.6222 34.5722 39.6401 31.6602 34.6627C30.0833 31.9689 28.7862 29.0593 27.9088 26.0619C27.093 23.278 26.614 20.3186 26.7468 17.4113L26.7895 16.4604L27.6242 16.9181Z" fill="white"/>
<path fill-rule="evenodd" clip-rule="evenodd" d="M27.3397 17.4375C36.6899 22.5596 44.6172 36.1733 44.3326 46.8371C34.9185 41.8265 26.8536 28.1582 27.3397 17.4375Z" fill="#C4996C"/>
<path fill-rule="evenodd" clip-rule="evenodd" d="M44.9137 17.4187C45.158 28.2959 37.2164 42.1752 27.641 47.3684L26.7992 47.8261L26.766 46.8681C26.6664 44.0012 27.1431 41.0821 27.9327 38.3313C28.7864 35.3601 30.0384 32.4718 31.5679 29.7875C34.4586 24.7152 38.8028 19.6264 44.0506 16.9065L44.8947 16.4678L44.9161 17.4187H44.9137Z" fill="white"/>
<path fill-rule="evenodd" clip-rule="evenodd" d="M44.3207 17.4307C44.5602 28.0897 36.7348 41.7604 27.3562 46.8469C26.9887 36.1902 34.7927 22.3701 44.3207 17.4307Z" fill="#C4996C"/>
<path fill-rule="evenodd" clip-rule="evenodd" d="M27.6459 52.4405C28.0253 52.45 27.9779 52.5235 28.4 52.5235L27.5131 56.9081C27.3898 57.6693 27.3115 58.2004 27.3115 58.9664H29.0687V58.1293H28.5659C28.6489 57.776 28.63 57.4867 28.694 57.0859L29.0212 54.9873C29.0995 54.4869 29.0189 54.4229 29.2062 54.0008C29.2109 53.989 29.2228 53.9629 29.2347 53.9463L29.8204 56.1208C30.5247 58.4044 29.9034 58.1293 31.6605 58.1293C31.6747 57.4843 32.8675 54.3542 32.9149 53.7803C33.1758 53.97 33.0738 53.9178 33.0857 54.3613C33.0928 54.6743 33.1189 54.7691 33.1663 55.0347L33.669 58.9664H35.4262V58.1293C34.5844 58.1293 34.8571 57.9396 34.627 56.6709C34.5227 56.1042 34.4516 55.5422 34.3448 55.03L33.8374 51.6058C31.5016 51.6058 31.7459 51.3734 31.7459 52.4429H32.4146C32.2771 52.7298 32.1917 53.0547 32.0802 53.3629C31.7483 54.2712 31.3641 55.2505 31.1602 56.2085L29.9366 52.6658C29.8678 52.4358 29.8085 52.2793 29.754 52.0967C29.5548 51.4493 29.7824 51.6082 27.6483 51.6082V52.4452L27.6459 52.4405Z" fill="white"/>
<path fill-rule="evenodd" clip-rule="evenodd" d="M40.4461 53.3346C40.2658 53.1117 40.3749 52.0636 40.3536 51.6913L38.8549 51.6841C38.8549 52.2272 38.7079 52.4027 39.1892 52.443V58.9688H40.695V58.1318H40.4437V54.9518L41.3899 56.1802C42.0159 56.9461 42.0443 56.958 42.0349 57.7097C42.0277 58.2385 42.0301 58.7554 42.1179 58.9665H43.6237C43.6237 58.4068 43.7802 58.1697 43.2893 58.1294V51.6035H41.7005V52.3576C42.0467 52.4382 42.0989 52.4596 42.0823 52.7086C42.042 53.2729 41.9234 54.8759 42.1202 55.2862C41.8167 55.2056 41.8831 55.1344 41.7005 54.8688L40.4461 53.3346Z" fill="white"/>
<path fill-rule="evenodd" clip-rule="evenodd" d="M21.8737 52.1892C21.8737 52.4856 22.0373 52.4406 22.3764 52.4406V57.041C22.3764 57.6551 23.2135 56.7991 23.2135 58.9641C24.1691 58.9641 25.2007 59.0898 25.9666 58.5396C26.097 58.4448 26.2559 58.2622 26.3721 58.1081C26.5049 57.9326 26.6424 57.7358 26.6424 57.4583V51.6035H24.9683V52.3576L25.4662 52.4548L25.4402 57.4322C25.3216 57.9776 24.9185 58.0464 24.2972 58.0464C24.2592 57.5935 24.1004 57.3018 23.8514 56.9864C23.7352 56.8394 23.6285 56.8418 23.6285 56.6236V51.6035H21.8713V52.1892H21.8737Z" fill="white"/>
<path fill-rule="evenodd" clip-rule="evenodd" d="M49.7319 52.3577C50.5026 52.5379 50.3177 52.3909 50.3177 54.5322C50.3177 55.4522 50.3177 56.3723 50.3177 57.2924C51.1903 57.5248 51.0717 58.3761 51.0717 58.9665C52.0938 58.9665 53.04 59.097 53.8841 58.516C54.1379 58.3405 54.5007 57.7501 54.5007 57.3778V51.606H52.8265V52.36C53.0234 52.4051 53.0731 52.4383 53.3293 52.443V57.1288C53.3293 57.9137 52.9332 58.0488 52.1578 58.0488C52.0796 57.0979 51.4891 56.9462 51.4891 56.626V51.606H49.7319V52.36V52.3577Z" fill="white"/>
<path fill-rule="evenodd" clip-rule="evenodd" d="M43.9604 53.8634H44.9635C44.9635 52.4098 44.788 52.609 45.8006 52.609V58.7151C45.8006 59.1348 46.5144 58.9665 47.6407 58.9665V58.1294C47.3111 58.1294 47.3016 58.1033 47.055 58.0464V52.609H47.8921C47.8921 54.2215 47.5957 53.8634 48.8952 53.8634V51.6035H43.9604V53.8634Z" fill="white"/>
<path fill-rule="evenodd" clip-rule="evenodd" d="M17.105 52.4406C17.4275 52.4667 17.3753 52.5236 17.7737 52.5236V58.9641H21.454V57.2069H20.6169C20.5908 57.5294 20.5339 57.5366 20.5339 57.961H19.0281V51.6035H17.105V52.4406Z" fill="white"/>
<path fill-rule="evenodd" clip-rule="evenodd" d="M35.6772 51.8551V52.4408C36.0567 52.4503 36.0092 52.5238 36.4313 52.5238V58.9643H38.2714V58.1272C37.7972 58.1272 37.6027 58.1936 37.6027 57.8758V51.6013C36.4479 51.6013 35.6796 51.4282 35.6796 51.8527L35.6772 51.8551Z" fill="white"/>
</g>
</svg>
