<svg width="242" height="217" viewBox="0 0 242 217" fill="none" xmlns="http://www.w3.org/2000/svg">
<rect y="94.874" width="94.1606" height="94.1606" rx="5" fill="white"/>
<circle cx="94.5173" cy="94.5173" r="94.5173" fill="white"/>
<mask id="path-3-outside-1" maskUnits="userSpaceOnUse" x="92.0771" y="67.4546" width="150" height="150" fill="black">
<rect fill="white" x="92.0771" y="67.4546" width="150" height="150"/>
<path fill-rule="evenodd" clip-rule="evenodd" d="M166.795 208.891C129.948 208.891 100.077 179.02 100.077 142.173C100.077 105.325 129.948 75.4546 166.795 75.4546C203.643 75.4546 233.513 105.325 233.513 142.173C233.513 143.56 233.471 144.938 233.387 146.305C233.47 146.665 233.513 147.04 233.513 147.425V203.891C233.513 206.652 231.275 208.891 228.513 208.891H172.047C171.662 208.891 171.286 208.847 170.926 208.765C169.56 208.848 168.182 208.891 166.795 208.891Z"/>
</mask>
<path fill-rule="evenodd" clip-rule="evenodd" d="M166.795 208.891C129.948 208.891 100.077 179.02 100.077 142.173C100.077 105.325 129.948 75.4546 166.795 75.4546C203.643 75.4546 233.513 105.325 233.513 142.173C233.513 143.56 233.471 144.938 233.387 146.305C233.47 146.665 233.513 147.04 233.513 147.425V203.891C233.513 206.652 231.275 208.891 228.513 208.891H172.047C171.662 208.891 171.286 208.847 170.926 208.765C169.56 208.848 168.182 208.891 166.795 208.891Z" fill="#D4AF37"/>
<path d="M233.387 146.305L225.402 145.817L225.332 146.967L225.589 148.089L233.387 146.305ZM170.926 208.765L172.712 200.967L171.589 200.71L170.438 200.78L170.926 208.765ZM92.0771 142.173C92.0771 183.438 125.53 216.891 166.795 216.891V200.891C134.366 200.891 108.077 174.602 108.077 142.173H92.0771ZM166.795 67.4546C125.53 67.4546 92.0771 100.907 92.0771 142.173H108.077C108.077 109.744 134.366 83.4546 166.795 83.4546V67.4546ZM241.513 142.173C241.513 100.907 208.061 67.4546 166.795 67.4546V83.4546C199.224 83.4546 225.513 109.744 225.513 142.173H241.513ZM241.372 146.793C241.466 145.264 241.513 143.723 241.513 142.173H225.513C225.513 143.397 225.476 144.613 225.402 145.817L241.372 146.793ZM241.513 147.425C241.513 146.435 241.401 145.462 241.186 144.521L225.589 148.089C225.538 147.868 225.513 147.644 225.513 147.425H241.513ZM241.513 203.891V147.425H225.513V203.891H241.513ZM228.513 216.891C235.693 216.891 241.513 211.071 241.513 203.891H225.513C225.513 202.234 226.856 200.891 228.513 200.891V216.891ZM172.047 216.891H228.513V200.891H172.047V216.891ZM169.14 216.563C170.082 216.779 171.056 216.891 172.047 216.891V200.891C172.267 200.891 172.491 200.916 172.712 200.967L169.14 216.563ZM166.795 216.891C168.345 216.891 169.885 216.843 171.414 216.75L170.438 200.78C169.234 200.853 168.02 200.891 166.795 200.891V216.891Z" fill="#38435F" mask="url(#path-3-outside-1)"/>
</svg>
